<mxfile host="app.diagrams.net" modified="2020-10-06T06:03:54.826Z" agent="5.0 (Windows NT 10.0; Win64; x64) AppleWebKit/537.36 (KHTML, like Gecko) Chrome/85.0.4183.121 Safari/537.36" etag="JsCmus1BJUdmC7YUXwZz" version="13.7.7" type="github">
  <diagram id="C5RBs43oDa-KdzZeNtuy" name="Page-1">
    <mxGraphModel dx="1697" dy="919" grid="1" gridSize="10" guides="1" tooltips="1" connect="1" arrows="1" fold="1" page="1" pageScale="1" pageWidth="827" pageHeight="1169" math="0" shadow="0">
      <root>
        <mxCell id="WIyWlLk6GJQsqaUBKTNV-0" />
        <mxCell id="WIyWlLk6GJQsqaUBKTNV-1" parent="WIyWlLk6GJQsqaUBKTNV-0" />
        <mxCell id="lC5Pr8aBIXOViF1yuEmw-0" value="" style="rounded=1;whiteSpace=wrap;html=1;fillColor=#f5f5f5;strokeColor=#666666;fontColor=#333333;" vertex="1" parent="WIyWlLk6GJQsqaUBKTNV-1">
          <mxGeometry x="80" y="110" width="1350" height="760" as="geometry" />
        </mxCell>
        <mxCell id="lC5Pr8aBIXOViF1yuEmw-1" value="&lt;font style=&quot;font-size: 22px&quot;&gt;COVID 19 TRACKER&lt;/font&gt;" style="text;html=1;strokeColor=none;fillColor=none;align=center;verticalAlign=middle;whiteSpace=wrap;rounded=0;" vertex="1" parent="WIyWlLk6GJQsqaUBKTNV-1">
          <mxGeometry x="130" y="150" width="290" height="50" as="geometry" />
        </mxCell>
        <mxCell id="lC5Pr8aBIXOViF1yuEmw-2" value="&lt;b&gt;Worldwide&lt;/b&gt;" style="rounded=1;whiteSpace=wrap;html=1;" vertex="1" parent="WIyWlLk6GJQsqaUBKTNV-1">
          <mxGeometry x="655" y="145" width="210" height="60" as="geometry" />
        </mxCell>
        <mxCell id="lC5Pr8aBIXOViF1yuEmw-6" value="" style="rounded=1;whiteSpace=wrap;html=1;" vertex="1" parent="WIyWlLk6GJQsqaUBKTNV-1">
          <mxGeometry x="150" y="240" width="220" height="80" as="geometry" />
        </mxCell>
        <mxCell id="lC5Pr8aBIXOViF1yuEmw-7" value="Coronavirus cases" style="text;html=1;strokeColor=none;fillColor=none;align=center;verticalAlign=middle;whiteSpace=wrap;rounded=0;" vertex="1" parent="WIyWlLk6GJQsqaUBKTNV-1">
          <mxGeometry x="200" y="250" width="120" height="20" as="geometry" />
        </mxCell>
        <mxCell id="lC5Pr8aBIXOViF1yuEmw-8" value="+ 2,000" style="text;html=1;strokeColor=none;fillColor=none;align=center;verticalAlign=middle;whiteSpace=wrap;rounded=0;" vertex="1" parent="WIyWlLk6GJQsqaUBKTNV-1">
          <mxGeometry x="200" y="270" width="110" height="20" as="geometry" />
        </mxCell>
        <mxCell id="lC5Pr8aBIXOViF1yuEmw-9" value="1.2 M Total" style="text;html=1;strokeColor=none;fillColor=none;align=center;verticalAlign=middle;whiteSpace=wrap;rounded=0;" vertex="1" parent="WIyWlLk6GJQsqaUBKTNV-1">
          <mxGeometry x="200" y="290" width="110" height="20" as="geometry" />
        </mxCell>
        <mxCell id="lC5Pr8aBIXOViF1yuEmw-10" value="" style="rounded=1;whiteSpace=wrap;html=1;" vertex="1" parent="WIyWlLk6GJQsqaUBKTNV-1">
          <mxGeometry x="400" y="240" width="220" height="80" as="geometry" />
        </mxCell>
        <mxCell id="lC5Pr8aBIXOViF1yuEmw-11" value="Recovered" style="text;html=1;strokeColor=none;fillColor=none;align=center;verticalAlign=middle;whiteSpace=wrap;rounded=0;" vertex="1" parent="WIyWlLk6GJQsqaUBKTNV-1">
          <mxGeometry x="450" y="250" width="120" height="20" as="geometry" />
        </mxCell>
        <mxCell id="lC5Pr8aBIXOViF1yuEmw-12" value="+ 2,000" style="text;html=1;strokeColor=none;fillColor=none;align=center;verticalAlign=middle;whiteSpace=wrap;rounded=0;" vertex="1" parent="WIyWlLk6GJQsqaUBKTNV-1">
          <mxGeometry x="450" y="270" width="110" height="20" as="geometry" />
        </mxCell>
        <mxCell id="lC5Pr8aBIXOViF1yuEmw-13" value="1.2 M Total" style="text;html=1;strokeColor=none;fillColor=none;align=center;verticalAlign=middle;whiteSpace=wrap;rounded=0;" vertex="1" parent="WIyWlLk6GJQsqaUBKTNV-1">
          <mxGeometry x="450" y="290" width="110" height="20" as="geometry" />
        </mxCell>
        <mxCell id="lC5Pr8aBIXOViF1yuEmw-14" value="" style="rounded=1;whiteSpace=wrap;html=1;" vertex="1" parent="WIyWlLk6GJQsqaUBKTNV-1">
          <mxGeometry x="650" y="240" width="220" height="80" as="geometry" />
        </mxCell>
        <mxCell id="lC5Pr8aBIXOViF1yuEmw-15" value="Deaths" style="text;html=1;strokeColor=none;fillColor=none;align=center;verticalAlign=middle;whiteSpace=wrap;rounded=0;" vertex="1" parent="WIyWlLk6GJQsqaUBKTNV-1">
          <mxGeometry x="700" y="250" width="120" height="20" as="geometry" />
        </mxCell>
        <mxCell id="lC5Pr8aBIXOViF1yuEmw-16" value="+ 2,000" style="text;html=1;strokeColor=none;fillColor=none;align=center;verticalAlign=middle;whiteSpace=wrap;rounded=0;" vertex="1" parent="WIyWlLk6GJQsqaUBKTNV-1">
          <mxGeometry x="700" y="270" width="110" height="20" as="geometry" />
        </mxCell>
        <mxCell id="lC5Pr8aBIXOViF1yuEmw-17" value="1.2 M Total" style="text;html=1;strokeColor=none;fillColor=none;align=center;verticalAlign=middle;whiteSpace=wrap;rounded=0;" vertex="1" parent="WIyWlLk6GJQsqaUBKTNV-1">
          <mxGeometry x="700" y="290" width="110" height="20" as="geometry" />
        </mxCell>
        <mxCell id="lC5Pr8aBIXOViF1yuEmw-18" value="" style="rounded=1;whiteSpace=wrap;html=1;" vertex="1" parent="WIyWlLk6GJQsqaUBKTNV-1">
          <mxGeometry x="150" y="350" width="720" height="450" as="geometry" />
        </mxCell>
        <mxCell id="lC5Pr8aBIXOViF1yuEmw-19" value="" style="html=1;verticalLabelPosition=bottom;align=center;labelBackgroundColor=#ffffff;verticalAlign=top;strokeWidth=2;strokeColor=#0080F0;shadow=0;dashed=0;shape=mxgraph.ios7.icons.map;" vertex="1" parent="WIyWlLk6GJQsqaUBKTNV-1">
          <mxGeometry x="410" y="480" width="190" height="210" as="geometry" />
        </mxCell>
        <mxCell id="lC5Pr8aBIXOViF1yuEmw-20" value="" style="rounded=1;whiteSpace=wrap;html=1;" vertex="1" parent="WIyWlLk6GJQsqaUBKTNV-1">
          <mxGeometry x="950" y="150" width="380" height="645" as="geometry" />
        </mxCell>
        <mxCell id="lC5Pr8aBIXOViF1yuEmw-21" value="Cases By Country" style="text;html=1;strokeColor=none;fillColor=none;align=center;verticalAlign=middle;whiteSpace=wrap;rounded=0;" vertex="1" parent="WIyWlLk6GJQsqaUBKTNV-1">
          <mxGeometry x="1010" y="180" width="150" height="20" as="geometry" />
        </mxCell>
        <mxCell id="lC5Pr8aBIXOViF1yuEmw-22" value="Worldwide New Cases" style="text;html=1;strokeColor=none;fillColor=none;align=center;verticalAlign=middle;whiteSpace=wrap;rounded=0;" vertex="1" parent="WIyWlLk6GJQsqaUBKTNV-1">
          <mxGeometry x="1000" y="585" width="150" height="20" as="geometry" />
        </mxCell>
        <mxCell id="lC5Pr8aBIXOViF1yuEmw-23" value="" style="shape=table;html=1;whiteSpace=wrap;startSize=0;container=1;collapsible=0;childLayout=tableLayout;columnLines=0;rowLines=0;" vertex="1" parent="WIyWlLk6GJQsqaUBKTNV-1">
          <mxGeometry x="1010" y="220" width="230" height="320" as="geometry" />
        </mxCell>
        <mxCell id="lC5Pr8aBIXOViF1yuEmw-24" value="" style="shape=partialRectangle;html=1;whiteSpace=wrap;collapsible=0;dropTarget=0;pointerEvents=0;fillColor=none;top=0;left=0;bottom=0;right=0;points=[[0,0.5],[1,0.5]];portConstraint=eastwest;" vertex="1" parent="lC5Pr8aBIXOViF1yuEmw-23">
          <mxGeometry width="230" height="107" as="geometry" />
        </mxCell>
        <mxCell id="lC5Pr8aBIXOViF1yuEmw-25" value="Value 1" style="shape=partialRectangle;html=1;whiteSpace=wrap;connectable=0;fillColor=none;top=0;left=0;bottom=0;right=0;overflow=hidden;" vertex="1" parent="lC5Pr8aBIXOViF1yuEmw-24">
          <mxGeometry width="77" height="107" as="geometry" />
        </mxCell>
        <mxCell id="lC5Pr8aBIXOViF1yuEmw-26" value="Value 2" style="shape=partialRectangle;html=1;whiteSpace=wrap;connectable=0;fillColor=none;top=0;left=0;bottom=0;right=0;overflow=hidden;" vertex="1" parent="lC5Pr8aBIXOViF1yuEmw-24">
          <mxGeometry x="77" width="76" height="107" as="geometry" />
        </mxCell>
        <mxCell id="lC5Pr8aBIXOViF1yuEmw-27" value="Value 3" style="shape=partialRectangle;html=1;whiteSpace=wrap;connectable=0;fillColor=none;top=0;left=0;bottom=0;right=0;overflow=hidden;" vertex="1" parent="lC5Pr8aBIXOViF1yuEmw-24">
          <mxGeometry x="153" width="77" height="107" as="geometry" />
        </mxCell>
        <mxCell id="lC5Pr8aBIXOViF1yuEmw-28" value="" style="shape=partialRectangle;html=1;whiteSpace=wrap;collapsible=0;dropTarget=0;pointerEvents=0;fillColor=none;top=0;left=0;bottom=0;right=0;points=[[0,0.5],[1,0.5]];portConstraint=eastwest;" vertex="1" parent="lC5Pr8aBIXOViF1yuEmw-23">
          <mxGeometry y="107" width="230" height="106" as="geometry" />
        </mxCell>
        <mxCell id="lC5Pr8aBIXOViF1yuEmw-29" value="Value 4" style="shape=partialRectangle;html=1;whiteSpace=wrap;connectable=0;fillColor=none;top=0;left=0;bottom=0;right=0;overflow=hidden;" vertex="1" parent="lC5Pr8aBIXOViF1yuEmw-28">
          <mxGeometry width="77" height="106" as="geometry" />
        </mxCell>
        <mxCell id="lC5Pr8aBIXOViF1yuEmw-30" value="Value 5" style="shape=partialRectangle;html=1;whiteSpace=wrap;connectable=0;fillColor=none;top=0;left=0;bottom=0;right=0;overflow=hidden;" vertex="1" parent="lC5Pr8aBIXOViF1yuEmw-28">
          <mxGeometry x="77" width="76" height="106" as="geometry" />
        </mxCell>
        <mxCell id="lC5Pr8aBIXOViF1yuEmw-31" value="Value 6" style="shape=partialRectangle;html=1;whiteSpace=wrap;connectable=0;fillColor=none;top=0;left=0;bottom=0;right=0;overflow=hidden;" vertex="1" parent="lC5Pr8aBIXOViF1yuEmw-28">
          <mxGeometry x="153" width="77" height="106" as="geometry" />
        </mxCell>
        <mxCell id="lC5Pr8aBIXOViF1yuEmw-32" value="" style="shape=partialRectangle;html=1;whiteSpace=wrap;collapsible=0;dropTarget=0;pointerEvents=0;fillColor=none;top=0;left=0;bottom=0;right=0;points=[[0,0.5],[1,0.5]];portConstraint=eastwest;" vertex="1" parent="lC5Pr8aBIXOViF1yuEmw-23">
          <mxGeometry y="213" width="230" height="107" as="geometry" />
        </mxCell>
        <mxCell id="lC5Pr8aBIXOViF1yuEmw-33" value="Value 7" style="shape=partialRectangle;html=1;whiteSpace=wrap;connectable=0;fillColor=none;top=0;left=0;bottom=0;right=0;overflow=hidden;" vertex="1" parent="lC5Pr8aBIXOViF1yuEmw-32">
          <mxGeometry width="77" height="107" as="geometry" />
        </mxCell>
        <mxCell id="lC5Pr8aBIXOViF1yuEmw-34" value="Value 8" style="shape=partialRectangle;html=1;whiteSpace=wrap;connectable=0;fillColor=none;top=0;left=0;bottom=0;right=0;overflow=hidden;" vertex="1" parent="lC5Pr8aBIXOViF1yuEmw-32">
          <mxGeometry x="77" width="76" height="107" as="geometry" />
        </mxCell>
        <mxCell id="lC5Pr8aBIXOViF1yuEmw-35" value="Value 9" style="shape=partialRectangle;html=1;whiteSpace=wrap;connectable=0;fillColor=none;top=0;left=0;bottom=0;right=0;overflow=hidden;" vertex="1" parent="lC5Pr8aBIXOViF1yuEmw-32">
          <mxGeometry x="153" width="77" height="107" as="geometry" />
        </mxCell>
        <mxCell id="lC5Pr8aBIXOViF1yuEmw-36" value="Label" style="label;whiteSpace=wrap;html=1;image=img/clipart/Gear_128x128.png" vertex="1" parent="WIyWlLk6GJQsqaUBKTNV-1">
          <mxGeometry x="1020" y="640" width="207" height="110" as="geometry" />
        </mxCell>
      </root>
    </mxGraphModel>
  </diagram>
</mxfile>
